<svg xmlns="http://www.w3.org/2000/svg" width="900.757" height="212.776" viewBox="0 0 900.757 212.776">
  <g id="Pipeops_1_Dark" data-name="Pipeops 1 Dark" transform="translate(-514.536 -257.446)">
    <g id="Group_1" data-name="Group 1">
      <path id="Path_1" data-name="Path 1" d="M883.215,324.071a38.428,38.428,0,0,0-11.73-7.735,36.686,36.686,0,0,0-14.478-2.922h-54.32v112.12h19.6v-39h34.671a36.748,36.748,0,0,0,14.494-2.92,38.389,38.389,0,0,0,11.745-7.733,36.277,36.277,0,0,0,8.015-11.6,36.13,36.13,0,0,0,.005-28.61A36.3,36.3,0,0,0,883.215,324.071Zm-60.928,8.7H856.6a16.676,16.676,0,0,1,6.782,1.375,18.781,18.781,0,0,1,5.767,3.836,17.006,17.006,0,0,1,3.735,5.457,16.058,16.058,0,0,1,1.321,6.532,15.745,15.745,0,0,1-1.344,6.568,17.358,17.358,0,0,1-3.844,5.494,18.631,18.631,0,0,1-5.791,3.788,17.321,17.321,0,0,1-6.866,1.35H822.287Z" fill="#100043"/>
      <path id="Path_2" data-name="Path 2" d="M913.887,295.734a12.336,12.336,0,0,0-8.9,3.666,12.474,12.474,0,0,0-3.66,9.014,12.56,12.56,0,1,0,25.12,0,12.492,12.492,0,0,0-3.672-9.026A12.335,12.335,0,0,0,913.887,295.734Z" fill="#4f21ea"/>
      <path id="Path_3" data-name="Path 3" d="M900.606,352.574h5.64v72.839h19.6V333.454h-25.24Z" fill="#100043"/>
      <path id="Path_4" data-name="Path 4" d="M1015.159,345.512A48.332,48.332,0,0,0,999.98,335.3a47.192,47.192,0,0,0-18.717-3.768,54.071,54.071,0,0,0-10.663,1.12,43.587,43.587,0,0,0-11.565,4.177,44.353,44.353,0,0,0-5.829,3.689v-7.066h-19.48V451.933h19.48V418.008a46.956,46.956,0,0,0,4.692,3.06,45.417,45.417,0,0,0,11.82,4.724,46.238,46.238,0,0,0,30.412-2.592,49.224,49.224,0,0,0,25.267-25.805,46.843,46.843,0,0,0,3.769-18.5,45.58,45.58,0,0,0-3.8-18.389A48.632,48.632,0,0,0,1015.159,345.512Zm-5.593,33.862a27.045,27.045,0,0,1-2.186,10.74A30.084,30.084,0,0,1,992.122,405.9a26.87,26.87,0,0,1-21.831,0,29.157,29.157,0,0,1-9.034-6.421,31.034,31.034,0,0,1-6.105-9.361,27.476,27.476,0,0,1,0-21.482,31.05,31.05,0,0,1,6.1-9.359,29.6,29.6,0,0,1,9.034-6.421,26.86,26.86,0,0,1,21.829,0,30.087,30.087,0,0,1,15.259,15.78A27.057,27.057,0,0,1,1009.566,379.374Z" fill="#100043"/>
      <path id="Path_5" data-name="Path 5" d="M1114.549,345.725a48.872,48.872,0,0,0-15.077-10.332,46.153,46.153,0,0,0-18.728-3.859,47.184,47.184,0,0,0-18.721,3.769,47.8,47.8,0,0,0-25.4,25.369,47.037,47.037,0,0,0-3.775,18.7,46.144,46.144,0,0,0,3.85,18.628,48.54,48.54,0,0,0,25.363,25.361,46.454,46.454,0,0,0,18.747,3.85,47.1,47.1,0,0,0,16.256-2.888,48.991,48.991,0,0,0,14.265-8.173l6.814-5.6-13.733-13.723-5.595,4.53a33.423,33.423,0,0,1-8.714,5.14,24.785,24.785,0,0,1-9.293,1.717,25.937,25.937,0,0,1-10.645-2.144,28.777,28.777,0,0,1-8.838-6.012,30.375,30.375,0,0,1-6.173-8.99q-.529-1.167-.96-2.373h74.335v-9.44a46,46,0,0,0-3.786-18.425A49.157,49.157,0,0,0,1114.549,345.725Zm-33.8,4.809a25.637,25.637,0,0,1,10.5,2.136,29.387,29.387,0,0,1,8.86,5.965,29.754,29.754,0,0,1,6.132,8.819q.505,1.1.919,2.24h-52.978q.375-1,.833-2a29.935,29.935,0,0,1,6.191-8.88,30.452,30.452,0,0,1,8.972-6.107A25.343,25.343,0,0,1,1080.744,350.534Z" fill="#100043"/>
      <path id="Path_6" data-name="Path 6" d="M1213.876,345.512a48.532,48.532,0,0,0-15.095-10.2,48.219,48.219,0,0,0-37.4-.009,47.8,47.8,0,0,0-25.4,25.369,48.2,48.2,0,0,0,0,37.4,47.8,47.8,0,0,0,25.405,25.369,48.226,48.226,0,0,0,37.4-.009,47.953,47.953,0,0,0,25.325-25.359,48.19,48.19,0,0,0,0-37.406A48.253,48.253,0,0,0,1213.876,345.512Zm-33.773,62.7a25.574,25.574,0,0,1-10.825-2.281,28.968,28.968,0,0,1-9.052-6.367,31.38,31.38,0,0,1-6.2-9.38,26.757,26.757,0,0,1-2.22-10.811,27.18,27.18,0,0,1,2.23-10.894,30.411,30.411,0,0,1,6.162-9.324,29.71,29.71,0,0,1,9.119-6.329,25.71,25.71,0,0,1,10.79-2.293,25.3,25.3,0,0,1,10.7,2.281,29.941,29.941,0,0,1,9.088,6.342,30.452,30.452,0,0,1,6.161,9.322,27.2,27.2,0,0,1,2.231,10.895,26.752,26.752,0,0,1-2.22,10.809,31.414,31.414,0,0,1-6.208,9.384,29.36,29.36,0,0,1-9.051,6.366A25.292,25.292,0,0,1,1180.1,408.213Z" fill="#100043"/>
      <path id="Path_7" data-name="Path 7" d="M1322.724,360.506a48.121,48.121,0,0,0-25.389-25.2,47.193,47.193,0,0,0-18.718-3.768,54.086,54.086,0,0,0-10.663,1.12,43.581,43.581,0,0,0-11.564,4.177,44.24,44.24,0,0,0-5.829,3.689v-7.066H1231.08V451.933h19.481V418.008a46.726,46.726,0,0,0,4.692,3.06,45.41,45.41,0,0,0,11.819,4.724,46.238,46.238,0,0,0,30.412-2.592,49.23,49.23,0,0,0,25.268-25.805,46.84,46.84,0,0,0,3.769-18.5A45.6,45.6,0,0,0,1322.724,360.506Zm-15.8,18.868a27.047,27.047,0,0,1-2.187,10.74,30.077,30.077,0,0,1-15.257,15.782,26.87,26.87,0,0,1-21.831,0,29.174,29.174,0,0,1-9.035-6.421,31.031,31.031,0,0,1-6.1-9.361,27.463,27.463,0,0,1,0-21.482,31.065,31.065,0,0,1,6.1-9.359,29.6,29.6,0,0,1,9.035-6.421,26.86,26.86,0,0,1,21.829,0,30.08,30.08,0,0,1,15.258,15.78A27.059,27.059,0,0,1,1306.921,379.374Z" fill="#100043"/>
      <path id="Path_8" data-name="Path 8" d="M1402.8,380.109a42.139,42.139,0,0,0-9.261-4.755,88.993,88.993,0,0,0-9.362-2.9l-17.036-3.989-.615-.118c-.834-.128-1.683-.291-2.53-.487-.876-.2-1.79-.438-2.719-.7l-6.132-1.967a26.346,26.346,0,0,1-3.507-1.538,10.536,10.536,0,0,1-2.34-1.644,6.808,6.808,0,0,1-1.375-1.76,1.97,1.97,0,0,1-.166-.914.5.5,0,0,1,.057-.269,9.86,9.86,0,0,1,.87-1.476,13.09,13.09,0,0,1,3.443-2.652,31.682,31.682,0,0,1,5.829-2.487,40.208,40.208,0,0,1,6.4-1.454,41.768,41.768,0,0,1,5.709-.462,45.068,45.068,0,0,1,6.149.465,54.178,54.178,0,0,1,6.834,1.413,46.584,46.584,0,0,1,6.685,2.4,34.64,34.64,0,0,1,5.789,3.259l5.386,3.793,14.389-13.792-7.686-5.634a48.284,48.284,0,0,0-9.279-5.325,64.13,64.13,0,0,0-9.539-3.291,70.175,70.175,0,0,0-9.56-1.762,82.008,82.008,0,0,0-9.111-.53,68.977,68.977,0,0,0-12.776,1.281,53.518,53.518,0,0,0-12.987,4.178,33.873,33.873,0,0,0-10.88,8.031,21.036,21.036,0,0,0-5.317,14.19,21.583,21.583,0,0,0,3.188,11.605,26.466,26.466,0,0,0,7.522,7.815,41.981,41.981,0,0,0,9.264,4.76,85.537,85.537,0,0,0,9.537,2.914l19.768,4.46c1.862.43,4.034,1.039,6.456,1.81a30.937,30.937,0,0,1,5.91,2.57,13.736,13.736,0,0,1,3.74,3.027,1.991,1.991,0,0,1,.495,1.479,1,1,0,0,1-.091.465,7.246,7.246,0,0,1-.787,1.344,12.016,12.016,0,0,1-3.7,2.716,34.226,34.226,0,0,1-6.355,2.382,45.475,45.475,0,0,1-6.826,1.278,58.075,58.075,0,0,1-5.975.374,51.8,51.8,0,0,1-6.27-.419,44.362,44.362,0,0,1-6.7-1.376,53.467,53.467,0,0,1-6.931-2.508,35.883,35.883,0,0,1-6.167-3.484l-5.5-3.862-14.347,14.346,7.988,5.437a57.668,57.668,0,0,0,19.328,8.616,81.408,81.408,0,0,0,18.473,2.25,85.824,85.824,0,0,0,12.15-.982,55.47,55.47,0,0,0,13.554-3.725,35.35,35.35,0,0,0,11.769-7.92,21.306,21.306,0,0,0,5.989-15.172,21.012,21.012,0,0,0-3.347-11.7A27.678,27.678,0,0,0,1402.8,380.109Z" fill="#100043"/>
    </g>
    <g id="Group_168" data-name="Group 168">
      <path id="Path_53" data-name="Path 53" d="M671.948,454.363a102.386,102.386,0,0,1-69.28,14.82c-1.06-.15-2.12-.32-3.17-.51-.26-.04-.52-.08-.78-.13-.29-.06-.56-.1-.85-.18a100.123,100.123,0,0,1-18.96-5.5c-2.38-.95-4.73-1.98-7.05-3.12a1.346,1.346,0,0,1-.24-.12c-.45-.21-.89-.43-1.33-.66-.02,0-.04-.02-.06-.04-.02.02-.02.02-.04,0-1.21-.6-2.38-1.23-3.55-1.91h-.01c-.2-.11-.41-.21-.59-.33-.04,0-.06,0-.06-.04a98.2,98.2,0,0,1-10.59-6.94.412.412,0,0,1-.15-.1c-.22-.15-.41-.29-.61-.45a101.454,101.454,0,0,1-19.36-19.42c-.43-.56-.86-1.13-1.25-1.72l-2.36-3.37c-.35-.49-.66-.95-.97-1.44-1.7-2.63-3.24-5.31-4.67-8.02-.87-1.67-1.69-3.35-2.47-5.07-1.05-2.3-2.01-4.64-2.85-7a99.386,99.386,0,0,1-5.77-25.72c-.22-2.28-.33-4.54-.37-6.82a100.843,100.843,0,0,1,47.09-87.45,102.7,102.7,0,0,1,95.42-7.5q2.61,1.1,5.15,2.35a99.241,99.241,0,0,1,12.24,7.12q3.54,2.4,6.89,5.11h.02c1.51,1.22,2.99,2.5,4.43,3.82h.01c.41.37.81.74,1.21,1.13a102.262,102.262,0,0,1,12.89,14.69q1.56,2.175,3.03,4.45c.39.6.76,1.19,1.13,1.79q1.74,2.835,3.26,5.74a103.1,103.1,0,0,1,5.3,11.67v.02c1.03,2.75,1.95,5.52,2.73,8.31.51,1.81.96,3.62,1.37,5.44A100.891,100.891,0,0,1,671.948,454.363Z" fill="#100043"/>
      <g id="Group_164" data-name="Group 164" opacity="0.25">
        <path id="Path_54" data-name="Path 54" d="M537.474,395.9a17.382,17.382,0,0,1-.351,2.223c-1.248,5.655-5.226,10.218-10.706,12.968-1.053-2.3-2.008-4.641-2.847-7a99.52,99.52,0,0,1-5.772-25.721c-.214-2.282-.331-4.544-.371-6.825,10.433,3.2,17.98,10.783,19.716,19.169A17.178,17.178,0,0,1,537.474,395.9Z"/>
        <path id="Path_55" data-name="Path 55" d="M565.742,414.445a19.61,19.61,0,0,1-7.489,11.544,19.925,19.925,0,0,1-4.29,2.477h-.015a20.958,20.958,0,0,1-12.812,1.151,21.3,21.3,0,0,1-2.243-.624l-2.359-3.374c-.351-.488-.663-.956-.975-1.443-1.7-2.633-3.238-5.3-4.661-8.015-.878-1.677-1.7-3.354-2.477-5.07-1.053-2.3-2.008-4.641-2.847-7a19.925,19.925,0,0,1,13.573-13.377A21.17,21.17,0,0,1,563.991,401.2,19.63,19.63,0,0,1,565.742,414.445Z"/>
        <path id="Path_56" data-name="Path 56" d="M538.889,428.993c.39.585.819,1.15,1.248,1.716A101.5,101.5,0,0,0,559.5,450.131c.2.156.39.293.6.449a.931.931,0,0,0,.039.234.4.4,0,0,0,.117-.137,15.864,15.864,0,0,0,3.276-4.972c.176-.41.332-.839.468-1.268.156-.507.312-1.014.429-1.54a16.889,16.889,0,0,0,.273-5.4,15.067,15.067,0,0,0-.273-1.638,17.077,17.077,0,0,0-6.182-9.868,1.45,1.45,0,0,0-.2-.175,18.06,18.06,0,0,0-7.059-3.276c-.1-.02-.2-.039-.312-.059-.351-.078-.7-.136-1.072-.2a17.631,17.631,0,0,0-13.085,3.335Z"/>
        <path id="Path_57" data-name="Path 57" d="M602.734,469.34a100.4,100.4,0,0,1-18.954-5.5c-2.925-1.17-5.792-2.457-8.619-3.9-.02,0-.039-.019-.059-.039-.02.02-.02.02-.039,0-1.209-.6-2.379-1.228-3.549-1.911a18.073,18.073,0,0,1,10.316-4.056,17.855,17.855,0,0,1,9.887,2.34A26.236,26.236,0,0,1,602.734,469.34Z"/>
        <path id="Path_58" data-name="Path 58" d="M593.784,446.836a17.676,17.676,0,0,1-2.067,9.438,16.966,16.966,0,0,1-7.937,7.566c-2.925-1.17-5.792-2.457-8.619-3.9-.02,0-.039-.019-.059-.039-.02.02-.02.02-.039,0-1.209-.6-2.379-1.228-3.549-1.911h-.02c-.2-.117-.409-.214-.585-.331-.039,0-.058,0-.058-.039a95.971,95.971,0,0,1-10.589-6.943.4.4,0,0,1-.117.137.931.931,0,0,1-.039-.234c-.078-.488-.137-.975-.176-1.482,0-.078-.019-.2-.019-.273a17.822,17.822,0,0,1,1.482-8.288v-.019a17.754,17.754,0,0,1,3.042-4.661,3.677,3.677,0,0,1,.273-.312,16.6,16.6,0,0,1,11.1-5.168,15.794,15.794,0,0,1,3.978.254A17.371,17.371,0,0,1,593.784,446.836Z"/>
      </g>
      <path id="Path_59" data-name="Path 59" d="M597.1,381.832S567.153,408.469,549.18,406.8s22.668,53.149,22.668,53.149,3.089-45.174,41.673-64.174S597.1,381.832,597.1,381.832Z"/>
      <path id="Path_60" data-name="Path 60" d="M595.148,377.932s-18.958,16.849-35.76,22.9c-.094-.2-.177-.4-.279-.6a21.169,21.169,0,0,0-24.844-10.491c-1.735-8.386-9.282-15.971-19.715-19.17.039,2.282.156,4.544.371,6.826a99.437,99.437,0,0,0,5.772,25.721c.839,2.36,1.794,4.7,2.847,7,.78,1.716,1.6,3.393,2.477,5.07,1.423,2.711,2.964,5.382,4.66,8.015.312.487.624.955.975,1.443h0l2.36,3.373c.39.586.819,1.151,1.248,1.717a101.471,101.471,0,0,0,19.366,19.417c.2.156.39.293.6.449a.931.931,0,0,0,.039.234.4.4,0,0,0,.117-.137h0a95.971,95.971,0,0,0,10.589,6.943c0,.038.019.038.058.038.176.118.39.215.585.332h.02c1.17.683,2.34,1.307,3.549,1.911.019.02.019.02.039,0,.019.02.039.039.058.039,2.828,1.443,5.7,2.73,8.62,3.9a100.4,100.4,0,0,0,18.954,5.5A26.238,26.238,0,0,0,586.836,455.3a17.667,17.667,0,0,0,2.068-9.438,17.436,17.436,0,0,0-12.238-15.768c5.69-13.447,16.063-28.95,34.892-38.222C650.148,372.872,595.148,377.932,595.148,377.932Z" fill="#b8a6f7" opacity="0.997" style="isolation: isolate"/>
      <g id="Group_165" data-name="Group 165" opacity="0.25">
        <path id="Path_61" data-name="Path 61" d="M739.454,293.583c0,16.42-8.01,34.51-19.59,45.22a13.13,13.13,0,0,1-2.07,1.54l-2.44,1.48c.51,1.81.96,3.62,1.37,5.44l-50.45,30.66-5,3.03-23.72,14.41-3.48,2.12-8.68,5.27a13.813,13.813,0,0,1-17.58-2.71l-.63-.73-.92-1.04-1.97-2.25-10.19-11.65-1.59-1.81a14.143,14.143,0,0,1-1.12-1.47,13.812,13.812,0,0,1,.77-16.31l8.93-11.07,2.15-2.66,18.96-23.5,3.29-4.07,36.72-45.51.71-.88a13.082,13.082,0,0,1,1.8-1.86c17.66-14.6,49.77-19.7,66.99-5.4C737.114,276.3,739.454,284.7,739.454,293.583Z"/>
        <path id="Path_62" data-name="Path 62" d="M563.841,366.738l9.143-34.827a4.31,4.31,0,0,1,4.155-3.256l63.742-1.55c4.163-.1,7.246,4.754,5.214,8.213l-12.9,21.965a4.434,4.434,0,0,1-4.827,2.014l-34.492-7.065a4.5,4.5,0,0,0-4.327,1.327L572.711,372.38C569.28,376.214,562.488,371.894,563.841,366.738Z"/>
        <path id="Path_63" data-name="Path 63" d="M619.7,430.567l35.732-4.445a4.309,4.309,0,0,0,3.778-3.687l9.986-62.974c.653-4.113-3.751-7.811-7.448-6.257l-23.482,9.875a4.434,4.434,0,0,0-2.636,4.518l2.43,35.124a4.5,4.5,0,0,1-1.889,4.113l-20.887,14.194C611.03,423.92,614.412,431.225,619.7,430.567Z"/>
        <g id="Ellipse_1" data-name="Ellipse 1">
          <circle id="Ellipse_2" data-name="Ellipse 2" cx="20.341" cy="20.341" r="20.341" transform="translate(668.136 293.849)"/>
          <circle id="Ellipse_3" data-name="Ellipse 3" cx="17.841" cy="17.841" r="17.841" transform="translate(670.636 296.349)" fill="none" stroke="#f7931e" stroke-miterlimit="10" stroke-width="5"/>
        </g>
      </g>
      <g id="Group_167" data-name="Group 167">
        <path id="Path_64" data-name="Path 64" d="M739.454,293.583c0,16.42-8.01,34.51-19.59,45.22a13.13,13.13,0,0,1-2.07,1.54l-2.44,1.48-47.99,29.16-4.99,3.04-25.24,15.32-3.48,2.12-12.16,7.39a13.806,13.806,0,0,1-13.94.24,10.9,10.9,0,0,1-1.29-.82,13.416,13.416,0,0,1-2.28-2.05.59.59,0,0,1-.07-.08l-10.1-11.53-2.8-3.21-2.4-2.74a13.819,13.819,0,0,1-.35-17.78l6.79-8.41,2.14-2.66,17.82-22.08,3.29-4.08,38.76-48.03,1.96-2.43a12.667,12.667,0,0,1,1.8-1.86c18.91-15.64,54.4-20.37,70.42-2.06.16.18.32.37.47.56C737.114,276.3,739.454,284.7,739.454,293.583Z" fill="#4f21ea"/>
        <path id="Path_65" data-name="Path 65" d="M559.941,362.838l9.143-34.827a4.31,4.31,0,0,1,4.155-3.256l63.742-1.55c4.163-.1,7.245,4.754,5.214,8.212l-12.9,21.966a4.432,4.432,0,0,1-4.827,2.013l-34.492-7.064a4.5,4.5,0,0,0-4.327,1.327L568.811,368.48C565.38,372.314,558.588,367.993,559.941,362.838Z" fill="#4f21ea"/>
        <path id="Path_66" data-name="Path 66" d="M615.8,426.667l35.732-4.446a4.311,4.311,0,0,0,3.778-3.686l9.986-62.974c.652-4.113-3.751-7.812-7.448-6.257l-23.482,9.875a4.434,4.434,0,0,0-2.636,4.518l2.43,35.124a4.5,4.5,0,0,1-1.889,4.113l-20.887,14.194C607.129,420.02,610.512,427.325,615.8,426.667Z" fill="#4f21ea"/>
        <g id="Group_166" data-name="Group 166">
          <path id="Path_68" data-name="Path 68" d="M684.577,289.953a20.341,20.341,0,1,1-20.341,20.341,20.341,20.341,0,0,1,20.341-20.341Z" fill="#fff" opacity="0.48" style="isolation: isolate"/>
          <path id="Path_67" data-name="Path 67" d="M700.774,297.993c-.28-.37-.58-.74-.89-1.1-.25-.29-.51-.56-.77-.83a21.246,21.246,0,0,0-1.65-1.51,20.423,20.423,0,0,0-16.1-4.35,19.269,19.269,0,0,0-2.1.45c-.58.16-1.16.34-1.72.55a20.345,20.345,0,0,0,7.04,39.43c.6,0,1.19-.03,1.78-.08s1.19-.13,1.77-.23a20.327,20.327,0,0,0,3.48-.94c.57-.21,1.13-.45,1.68-.71a20.362,20.362,0,0,0,7.48-30.68Zm-.89,13.32a15.337,15.337,0,1,1-30.01-5.37.03.03,0,0,1,.01-.02,15.327,15.327,0,0,1,30.02,3.92,14.4,14.4,0,0,1-.02,1.47Z" fill="#100043"/>
        </g>
      </g>
    </g>
  </g>
</svg>
