<svg xmlns="http://www.w3.org/2000/svg" width="904.664" height="212.769" viewBox="0 0 904.664 212.769">
  <g id="Pipeops_1_White" data-name="Pipeops 1 White" transform="translate(-510.629 -885.253)">
    <g id="Group_7" data-name="Group 7">
      <path id="Path_9" data-name="Path 9" d="M668.04,1082.17a102.384,102.384,0,0,1-69.28,14.82c-1.06-.15-2.12-.32-3.17-.51-.26-.04-.52-.08-.78-.13-.29-.06-.56-.1-.85-.18a100.121,100.121,0,0,1-18.96-5.5c-2.38-.95-4.73-1.98-7.05-3.12a1.349,1.349,0,0,1-.24-.12c-.45-.21-.89-.43-1.33-.66-.02,0-.04-.02-.06-.04-.02.02-.02.02-.04,0-1.21-.6-2.38-1.23-3.55-1.91h-.01c-.2-.11-.41-.21-.59-.33-.04,0-.06,0-.06-.04a98.318,98.318,0,0,1-10.59-6.94.4.4,0,0,1-.15-.1c-.22-.15-.41-.29-.61-.45a101.468,101.468,0,0,1-19.36-19.42c-.43-.56-.86-1.13-1.25-1.72l-2.36-3.37c-.35-.49-.66-.95-.97-1.44-1.7-2.63-3.24-5.31-4.67-8.02-.87-1.67-1.69-3.35-2.47-5.07-1.05-2.3-2.01-4.64-2.85-7a99.4,99.4,0,0,1-5.77-25.72c-.22-2.28-.33-4.54-.37-6.82a100.842,100.842,0,0,1,47.09-87.45,102.694,102.694,0,0,1,95.42-7.5q2.61,1.095,5.15,2.35a99.2,99.2,0,0,1,12.24,7.12q3.54,2.4,6.89,5.11h.02c1.51,1.22,2.99,2.5,4.43,3.82h.01c.41.37.81.74,1.21,1.13A102.193,102.193,0,0,1,696,937.65q1.56,2.175,3.03,4.45c.39.6.76,1.19,1.13,1.79q1.74,2.835,3.26,5.74a103.143,103.143,0,0,1,5.3,11.67v.02c1.03,2.75,1.95,5.52,2.73,8.31.51,1.81.96,3.62,1.37,5.44A100.891,100.891,0,0,1,668.04,1082.17Z" fill="#4f21ea"/>
      <g id="Group_3" data-name="Group 3" opacity="0.25">
        <path id="Path_10" data-name="Path 10" d="M535.57,1023.707a17.458,17.458,0,0,1-.351,2.223c-1.248,5.655-5.226,10.219-10.706,12.968-1.053-2.3-2.008-4.641-2.847-7a99.527,99.527,0,0,1-5.772-25.722c-.214-2.282-.331-4.544-.371-6.825,10.433,3.2,17.98,10.784,19.716,19.169A17.174,17.174,0,0,1,535.57,1023.707Z"/>
        <path id="Path_11" data-name="Path 11" d="M561.838,1042.252a19.612,19.612,0,0,1-7.489,11.545,19.95,19.95,0,0,1-4.29,2.476h-.019a20.959,20.959,0,0,1-12.812,1.151,21.353,21.353,0,0,1-2.243-.624l-2.359-3.374c-.351-.487-.663-.955-.975-1.443-1.7-2.632-3.238-5.3-4.661-8.015-.878-1.677-1.7-3.354-2.477-5.07-1.053-2.3-2.008-4.641-2.847-7a19.927,19.927,0,0,1,13.573-13.378,21.17,21.17,0,0,1,24.844,10.491A19.633,19.633,0,0,1,561.838,1042.252Z"/>
        <path id="Path_12" data-name="Path 12" d="M534.985,1056.8c.39.585.819,1.15,1.248,1.716a101.5,101.5,0,0,0,19.364,19.423c.2.156.39.292.605.448a.954.954,0,0,0,.039.234.372.372,0,0,0,.117-.136,15.865,15.865,0,0,0,3.276-4.973c.176-.409.332-.838.468-1.267.156-.508.312-1.015.429-1.541a16.881,16.881,0,0,0,.273-5.4,15.015,15.015,0,0,0-.273-1.638,17.07,17.07,0,0,0-6.182-9.867,1.562,1.562,0,0,0-.2-.176,18.091,18.091,0,0,0-7.059-3.276c-.1-.019-.195-.039-.312-.058-.351-.078-.7-.137-1.072-.195a17.634,17.634,0,0,0-13.085,3.334Z"/>
        <path id="Path_13" data-name="Path 13" d="M598.83,1097.147a100.39,100.39,0,0,1-18.954-5.5c-2.925-1.17-5.792-2.457-8.619-3.9-.02,0-.039-.02-.059-.039-.02.019-.02.019-.039,0-1.209-.6-2.379-1.229-3.549-1.912a18.083,18.083,0,0,1,10.316-4.056,17.867,17.867,0,0,1,9.887,2.34A26.242,26.242,0,0,1,598.83,1097.147Z"/>
        <path id="Path_14" data-name="Path 14" d="M589.88,1074.643a17.669,17.669,0,0,1-2.067,9.438,16.964,16.964,0,0,1-7.937,7.567c-2.925-1.17-5.792-2.457-8.619-3.9-.02,0-.039-.02-.059-.039-.02.019-.02.019-.039,0-1.209-.6-2.379-1.229-3.549-1.912h-.02c-.2-.117-.409-.214-.585-.331-.039,0-.058,0-.058-.039a96.062,96.062,0,0,1-10.589-6.942.372.372,0,0,1-.117.136.954.954,0,0,1-.039-.234c-.078-.487-.137-.975-.176-1.482,0-.078-.019-.2-.019-.273a17.838,17.838,0,0,1,1.482-8.288v-.019a17.8,17.8,0,0,1,3.042-4.661c.078-.1.176-.214.273-.312a16.609,16.609,0,0,1,11.1-5.168,15.86,15.86,0,0,1,3.978.254A17.371,17.371,0,0,1,589.88,1074.643Z"/>
      </g>
      <path id="Path_15" data-name="Path 15" d="M593.2,1009.64s-29.951,26.636-47.924,24.963,22.664,53.149,22.664,53.149,3.089-45.174,41.673-64.173S593.2,1009.64,593.2,1009.64Z" opacity="0.25"/>
      <path id="Path_16" data-name="Path 16" d="M591.246,1005.74s-18.958,16.849-35.76,22.9c-.094-.2-.177-.4-.279-.6a21.169,21.169,0,0,0-24.844-10.491c-1.735-8.385-9.282-15.971-19.715-19.169.039,2.281.156,4.543.371,6.825a99.426,99.426,0,0,0,5.772,25.721c.839,2.36,1.794,4.7,2.847,7,.78,1.716,1.6,3.393,2.477,5.07,1.423,2.711,2.964,5.383,4.66,8.015.312.488.624.956.975,1.443h0l2.36,3.374c.39.585.819,1.15,1.248,1.716a101.5,101.5,0,0,0,19.364,19.423c.2.156.39.292.605.448a.954.954,0,0,0,.039.234.373.373,0,0,0,.117-.136h0a96.062,96.062,0,0,0,10.589,6.942c0,.039.019.039.058.039.176.117.39.214.585.331h.02c1.17.683,2.34,1.307,3.549,1.912.019.019.019.019.039,0,.019.019.039.038.058.038,2.828,1.444,5.7,2.731,8.62,3.9a100.39,100.39,0,0,0,18.954,5.5,26.24,26.24,0,0,0-11.018-13.066,17.66,17.66,0,0,0,2.068-9.438,17.436,17.436,0,0,0-12.238-15.768c5.69-13.446,16.063-28.95,34.892-38.221C646.243,1000.679,591.246,1005.74,591.246,1005.74Z" fill="#e6e6e6"/>
      <g id="Group_4" data-name="Group 4" opacity="0.25">
        <path id="Path_17" data-name="Path 17" d="M735.55,921.39c0,16.42-8.01,34.51-19.59,45.22a13.087,13.087,0,0,1-2.07,1.54l-2.44,1.48c.51,1.81.96,3.62,1.37,5.44l-50.45,30.66-5,3.03-23.72,14.41-3.48,2.12-8.68,5.27a13.813,13.813,0,0,1-17.58-2.71l-.63-.73-.92-1.04-1.97-2.25-10.19-11.65-1.59-1.81a14.269,14.269,0,0,1-1.12-1.47,13.813,13.813,0,0,1,.77-16.31l8.93-11.07,2.15-2.66,18.96-23.5,3.29-4.07,36.72-45.51.71-.88a13.187,13.187,0,0,1,1.8-1.86c17.66-14.6,49.77-19.7,66.99-5.4C733.21,904.11,735.55,912.51,735.55,921.39Z"/>
        <path id="Path_18" data-name="Path 18" d="M559.937,994.545l9.143-34.827a4.311,4.311,0,0,1,4.155-3.256l63.742-1.549c4.163-.1,7.246,4.753,5.214,8.212l-12.9,21.966a4.432,4.432,0,0,1-4.827,2.013l-34.492-7.065a4.505,4.505,0,0,0-4.327,1.327l-16.838,18.821C565.376,1004.022,558.584,999.7,559.937,994.545Z"/>
        <path id="Path_19" data-name="Path 19" d="M615.8,1058.374l35.732-4.445a4.31,4.31,0,0,0,3.778-3.687l9.986-62.973c.653-4.113-3.751-7.812-7.448-6.257l-23.482,9.875a4.434,4.434,0,0,0-2.636,4.518l2.43,35.124a4.5,4.5,0,0,1-1.889,4.113l-20.887,14.194C607.126,1051.727,610.508,1059.032,615.8,1058.374Z"/>
        <g id="Ellipse_1" data-name="Ellipse 1" transform="translate(664.232 921.657)" stroke="#f7931e" stroke-miterlimit="10" stroke-width="5">
          <circle cx="20.341" cy="20.341" r="20.341" stroke="none"/>
          <circle cx="20.341" cy="20.341" r="17.841" fill="none"/>
        </g>
      </g>
      <g id="Group_6" data-name="Group 6">
        <path id="Path_20" data-name="Path 20" d="M735.55,921.39c0,16.42-8.01,34.51-19.59,45.22a13.087,13.087,0,0,1-2.07,1.54l-2.44,1.48-47.99,29.16-4.99,3.04-25.24,15.32-3.48,2.12-12.16,7.39a13.806,13.806,0,0,1-13.94.24,10.812,10.812,0,0,1-1.29-.82,13.337,13.337,0,0,1-2.28-2.05.575.575,0,0,1-.07-.08l-10.1-11.53-2.8-3.21-2.4-2.74a13.819,13.819,0,0,1-.35-17.78l6.79-8.41,2.14-2.66,17.82-22.08,3.29-4.08,38.76-48.03,1.96-2.43a12.676,12.676,0,0,1,1.8-1.86c18.91-15.64,54.4-20.37,70.42-2.06.16.18.32.37.47.56C733.21,904.11,735.55,912.51,735.55,921.39Z" fill="#fff"/>
        <path id="Path_21" data-name="Path 21" d="M556.037,990.645l9.143-34.827a4.311,4.311,0,0,1,4.155-3.256l63.742-1.549c4.163-.1,7.245,4.753,5.214,8.212l-12.9,21.965a4.432,4.432,0,0,1-4.827,2.014l-34.492-7.065a4.505,4.505,0,0,0-4.327,1.327l-16.838,18.821C561.476,1000.122,554.684,995.8,556.037,990.645Z" fill="#fff"/>
        <path id="Path_22" data-name="Path 22" d="M611.9,1054.474l35.732-4.445a4.31,4.31,0,0,0,3.778-3.687l9.986-62.974c.652-4.113-3.751-7.811-7.448-6.256l-23.482,9.875a4.433,4.433,0,0,0-2.636,4.517l2.43,35.125a4.5,4.5,0,0,1-1.889,4.113l-20.887,14.194C603.225,1047.827,606.608,1055.132,611.9,1054.474Z" fill="#fff"/>
        <g id="Group_5" data-name="Group 5">
          <circle id="Ellipse_2" data-name="Ellipse 2" cx="20.341" cy="20.341" r="20.341" transform="translate(660.332 917.756)" fill="#4f21ea" opacity="0.48"/>
          <path id="Path_23" data-name="Path 23" d="M696.87,925.8c-.28-.37-.58-.74-.89-1.1-.25-.29-.51-.56-.77-.83a21.233,21.233,0,0,0-1.65-1.51,20.427,20.427,0,0,0-16.1-4.35,19.153,19.153,0,0,0-2.1.45c-.58.16-1.16.34-1.72.55a20.345,20.345,0,0,0,7.04,39.43c.6,0,1.19-.03,1.78-.08s1.19-.13,1.77-.23a20.363,20.363,0,0,0,3.48-.94c.57-.21,1.13-.45,1.68-.71a20.36,20.36,0,0,0,7.48-30.68Zm-.89,13.32a15.337,15.337,0,1,1-30.01-5.37.035.035,0,0,1,.01-.02,15.3,15.3,0,0,1,10.45-10.38,15.423,15.423,0,0,1,15.79,4.64,15.22,15.22,0,0,1,3.78,9.66A14.4,14.4,0,0,1,695.98,939.12Z"/>
        </g>
      </g>
    </g>
    <g id="Group_8" data-name="Group 8">
      <path id="Path_24" data-name="Path 24" d="M883.215,951.875a38.449,38.449,0,0,0-11.73-7.736,36.7,36.7,0,0,0-14.478-2.921h-54.32v112.12h19.6v-39h34.671a36.748,36.748,0,0,0,14.494-2.92,38.389,38.389,0,0,0,11.745-7.733,36.3,36.3,0,0,0,8.015-11.6,36.13,36.13,0,0,0,.005-28.61A36.286,36.286,0,0,0,883.215,951.875Zm-60.928,8.7H856.6a16.659,16.659,0,0,1,6.782,1.375,18.763,18.763,0,0,1,5.767,3.836,17.006,17.006,0,0,1,3.735,5.457,16.057,16.057,0,0,1,1.321,6.531,15.747,15.747,0,0,1-1.344,6.569,17.341,17.341,0,0,1-3.844,5.493,18.633,18.633,0,0,1-5.791,3.789,17.321,17.321,0,0,1-6.866,1.35H822.287Z" fill="#fff"/>
      <path id="Path_25" data-name="Path 25" d="M913.887,923.538a12.336,12.336,0,0,0-8.9,3.666,12.475,12.475,0,0,0-3.66,9.014,12.56,12.56,0,1,0,25.12,0,12.492,12.492,0,0,0-3.672-9.026A12.331,12.331,0,0,0,913.887,923.538Z" fill="#4f21ea"/>
      <path id="Path_26" data-name="Path 26" d="M900.606,980.378h5.64v72.839h19.6V961.258h-25.24Z" fill="#fff"/>
      <path id="Path_27" data-name="Path 27" d="M1015.159,973.316a48.314,48.314,0,0,0-15.179-10.21,47.192,47.192,0,0,0-18.717-3.768,53.993,53.993,0,0,0-10.663,1.12,43.586,43.586,0,0,0-11.565,4.177,44.344,44.344,0,0,0-5.829,3.688v-7.065h-19.48v118.479h19.48v-33.925a47.144,47.144,0,0,0,4.692,3.06,45.379,45.379,0,0,0,11.82,4.723A46.238,46.238,0,0,0,1000.13,1051,49.224,49.224,0,0,0,1025.4,1025.2a46.847,46.847,0,0,0,3.769-18.5,45.575,45.575,0,0,0-3.8-18.388A48.632,48.632,0,0,0,1015.159,973.316Zm-5.593,33.862a27.048,27.048,0,0,1-2.186,10.74,30.077,30.077,0,0,1-15.258,15.781,26.865,26.865,0,0,1-21.831,0,29.159,29.159,0,0,1-9.034-6.422,31.016,31.016,0,0,1-6.105-9.36,27.476,27.476,0,0,1,0-21.482,31.038,31.038,0,0,1,6.1-9.359,29.6,29.6,0,0,1,9.034-6.422,26.865,26.865,0,0,1,21.829,0,30.077,30.077,0,0,1,15.259,15.78A27.054,27.054,0,0,1,1009.566,1007.178Z" fill="#fff"/>
      <path id="Path_28" data-name="Path 28" d="M1114.549,973.528a48.869,48.869,0,0,0-15.077-10.331,46.136,46.136,0,0,0-18.728-3.859,47.185,47.185,0,0,0-18.721,3.769,47.8,47.8,0,0,0-25.4,25.369,47.034,47.034,0,0,0-3.775,18.7,46.137,46.137,0,0,0,3.85,18.627,48.537,48.537,0,0,0,25.363,25.362,46.472,46.472,0,0,0,18.747,3.85,47.1,47.1,0,0,0,16.256-2.888,48.993,48.993,0,0,0,14.265-8.173l6.814-5.6-13.733-13.723-5.595,4.53a33.388,33.388,0,0,1-8.714,5.139,24.766,24.766,0,0,1-9.293,1.718,25.937,25.937,0,0,1-10.645-2.144,28.813,28.813,0,0,1-8.838-6.012,30.373,30.373,0,0,1-6.173-8.99q-.529-1.167-.96-2.373h74.335v-9.44a46,46,0,0,0-3.786-18.426A49.169,49.169,0,0,0,1114.549,973.528Zm-33.8,4.81a25.637,25.637,0,0,1,10.5,2.136,29.37,29.37,0,0,1,8.86,5.965,29.742,29.742,0,0,1,6.132,8.819q.505,1.1.919,2.24h-52.978q.375-1,.833-2a29.91,29.91,0,0,1,6.191-8.88,30.474,30.474,0,0,1,8.972-6.108A25.341,25.341,0,0,1,1080.744,978.338Z" fill="#fff"/>
      <path id="Path_29" data-name="Path 29" d="M1213.876,973.316a48.515,48.515,0,0,0-15.095-10.2,48.219,48.219,0,0,0-37.4-.009,47.8,47.8,0,0,0-25.4,25.369,48.2,48.2,0,0,0,0,37.4,47.8,47.8,0,0,0,25.405,25.369,48.226,48.226,0,0,0,37.4-.009,47.951,47.951,0,0,0,25.325-25.36,48.188,48.188,0,0,0,0-37.405A48.242,48.242,0,0,0,1213.876,973.316Zm-33.773,62.7a25.559,25.559,0,0,1-10.825-2.282,28.935,28.935,0,0,1-9.052-6.367,31.364,31.364,0,0,1-6.2-9.379,26.761,26.761,0,0,1-2.22-10.811,27.18,27.18,0,0,1,2.23-10.894,30.411,30.411,0,0,1,6.162-9.324,29.729,29.729,0,0,1,9.119-6.33,25.724,25.724,0,0,1,10.79-2.292,25.316,25.316,0,0,1,10.7,2.28,29.962,29.962,0,0,1,9.088,6.343,30.452,30.452,0,0,1,6.161,9.322,27.2,27.2,0,0,1,2.231,10.895,26.755,26.755,0,0,1-2.22,10.809,31.427,31.427,0,0,1-6.208,9.384,29.363,29.363,0,0,1-9.051,6.366A25.293,25.293,0,0,1,1180.1,1036.017Z" fill="#fff"/>
      <path id="Path_30" data-name="Path 30" d="M1322.724,988.31a48.121,48.121,0,0,0-25.389-25.2,47.193,47.193,0,0,0-18.718-3.768,54.008,54.008,0,0,0-10.663,1.12,43.58,43.58,0,0,0-11.564,4.177,44.336,44.336,0,0,0-5.829,3.688v-7.065H1231.08v118.479h19.481v-33.925a46.912,46.912,0,0,0,4.692,3.06,45.372,45.372,0,0,0,11.819,4.723,46.238,46.238,0,0,0,30.412-2.591,49.23,49.23,0,0,0,25.268-25.805,46.845,46.845,0,0,0,3.769-18.5A45.591,45.591,0,0,0,1322.724,988.31Zm-15.8,18.868a27.051,27.051,0,0,1-2.187,10.74,30.07,30.07,0,0,1-15.257,15.781,26.865,26.865,0,0,1-21.831,0,29.176,29.176,0,0,1-9.035-6.422,31.013,31.013,0,0,1-6.1-9.36,27.463,27.463,0,0,1,0-21.482,31.053,31.053,0,0,1,6.1-9.359,29.6,29.6,0,0,1,9.035-6.422,26.865,26.865,0,0,1,21.829,0,30.07,30.07,0,0,1,15.258,15.78A27.056,27.056,0,0,1,1306.921,1007.178Z" fill="#fff"/>
      <path id="Path_31" data-name="Path 31" d="M1402.8,1007.913a42.094,42.094,0,0,0-9.261-4.755,89.231,89.231,0,0,0-9.362-2.9l-17.036-3.988-.615-.118c-.834-.128-1.683-.291-2.53-.487-.876-.2-1.79-.438-2.719-.7l-6.132-1.967a26.347,26.347,0,0,1-3.507-1.538,10.568,10.568,0,0,1-2.34-1.644,6.814,6.814,0,0,1-1.375-1.761,1.963,1.963,0,0,1-.166-.913.5.5,0,0,1,.057-.269,9.8,9.8,0,0,1,.87-1.476,13.089,13.089,0,0,1,3.443-2.652,31.611,31.611,0,0,1,5.829-2.487,40.323,40.323,0,0,1,6.4-1.455,41.746,41.746,0,0,1,5.709-.461,45.219,45.219,0,0,1,6.149.464,54.351,54.351,0,0,1,6.834,1.413,46.586,46.586,0,0,1,6.685,2.4,34.64,34.64,0,0,1,5.789,3.259l5.386,3.793,14.389-13.792-7.686-5.634a48.285,48.285,0,0,0-9.279-5.325,64.012,64.012,0,0,0-9.539-3.291,70.324,70.324,0,0,0-9.56-1.763,82.237,82.237,0,0,0-9.111-.529,68.975,68.975,0,0,0-12.776,1.281,53.471,53.471,0,0,0-12.987,4.177,33.89,33.89,0,0,0-10.88,8.032,21.036,21.036,0,0,0-5.317,14.19,21.585,21.585,0,0,0,3.188,11.6,26.466,26.466,0,0,0,7.522,7.815,41.981,41.981,0,0,0,9.264,4.76,85.527,85.527,0,0,0,9.537,2.913l19.768,4.461c1.862.43,4.034,1.039,6.456,1.809a30.94,30.94,0,0,1,5.91,2.571,13.736,13.736,0,0,1,3.74,3.027,1.991,1.991,0,0,1,.495,1.479,1,1,0,0,1-.091.464,7.22,7.22,0,0,1-.787,1.345,12.016,12.016,0,0,1-3.7,2.716,34.227,34.227,0,0,1-6.355,2.381,45.476,45.476,0,0,1-6.826,1.279,58.066,58.066,0,0,1-5.975.374,51.808,51.808,0,0,1-6.27-.419,44.506,44.506,0,0,1-6.7-1.376,53.463,53.463,0,0,1-6.931-2.508,35.881,35.881,0,0,1-6.167-3.484l-5.5-3.862-14.347,14.345,7.988,5.438a57.668,57.668,0,0,0,19.328,8.616,81.462,81.462,0,0,0,18.473,2.25,85.827,85.827,0,0,0,12.15-.982,55.516,55.516,0,0,0,13.554-3.725,35.351,35.351,0,0,0,11.769-7.92,21.308,21.308,0,0,0,5.989-15.172,21.012,21.012,0,0,0-3.347-11.7A27.677,27.677,0,0,0,1402.8,1007.913Z" fill="#fff"/>
    </g>
  </g>
</svg>
